<svg width="128" height="128" viewBox="0 0 128 128" fill="none" xmlns="http://www.w3.org/2000/svg">
  <circle cx="64" cy="64" r="60" fill="#0078D7"/>
  <path d="M64 34c-16.6 0-30 13.4-30 30s13.4 30 30 30 30-13.4 30-30-13.4-30-30-30zm0 44c-7.7 0-14-6.3-14-14s6.3-14 14-14 14 6.3 14 14-6.3 14-14 14z" fill="white"/>
  <path d="M64 44c-11 0-20 9-20 20s9 20 20 20 20-9 20-20-9-20-20-20zm0 30c-5.5 0-10-4.5-10-10s4.5-10 10-10 10 4.5 10 10-4.5 10-10 10z" fill="rgba(255,255,255,0.8)"/>
  <circle cx="64" cy="64" r="6" fill="white"/>
</svg>
