<svg width="20" height="20" viewBox="0 0 20 20" fill="none" xmlns="http://www.w3.org/2000/svg">
  <path d="M10 13.5a3.5 3.5 0 100-7 3.5 3.5 0 000 7z" fill="white"/>
  <path fill-rule="evenodd" clip-rule="evenodd" d="M9.133 0a1 1 0 00-.986.836l-.33 2.276a7.843 7.843 0 00-1.851.778L4.164 2.527a1 1 0 00-1.307.093L1.62 3.857a1 1 0 00-.093 1.307l1.363 1.802a7.843 7.843 0 00-.778 1.851l-2.276.33A1 1 0 000 10.133v1.734a1 1 0 00.836.986l2.276.33c.174.644.436 1.265.778 1.851L2.527 16.836a1 1 0 00.093 1.307l1.237 1.237a1 1 0 001.307.093l1.802-1.363c.586.342 1.207.604 1.851.778l.33 2.276A1 1 0 0010.133 20h1.734a1 1 0 00.986-.836l.33-2.276a7.843 7.843 0 001.851-.778l1.802 1.363a1 1 0 001.307-.093l1.237-1.237a1 1 0 00.093-1.307l-1.363-1.802c.342-.586.604-1.207.778-1.851l2.276-.33A1 1 0 0020 11.867v-1.734a1 1 0 00-.836-.986l-2.276-.33a7.843 7.843 0 00-.778-1.851l1.363-1.802a1 1 0 00-.093-1.307l-1.237-1.237a1 1 0 00-1.307-.093l-1.802 1.363a7.843 7.843 0 00-1.851-.778l-.33-2.276A1 1 0 0011.867 0H9.133z" fill="white"/>
</svg>
